<svg xmlns="http://www.w3.org/2000/svg" viewBox="0 0 631.92 304.12"><defs><style>.cls-1{fill:#2ea141;}.cls-2{fill:#567dbe;}.cls-3{fill:#e43529;}.cls-4{fill:#f9bc00;}.cls-5{fill:none;}.cls-6{fill:#cf1421;}.cls-7{fill:#aa1c1d;}.cls-8{fill:#6b2a25;}.cls-9{fill:#a81a1a;}.cls-10{fill:#13120d;}</style></defs><g id="Calque_2" data-name="Calque 2"><rect class="cls-1" x="250.46" y="49.55" width="10.5" height="253.5"/><path class="cls-2" d="M300.5,255.79h-7.62V193.26h7.62Z" transform="translate(-2.4 -130.96)"/><path class="cls-2" d="M315.49,253.26v-8.63a17.84,17.84,0,0,0,3.69,2.35,30.55,30.55,0,0,0,4.54,1.77,37.1,37.1,0,0,0,4.78,1.11,28,28,0,0,0,4.45.39q7,0,10.5-2.51a8.35,8.35,0,0,0,3.47-7.21,8.24,8.24,0,0,0-1.16-4.41,12.67,12.67,0,0,0-3.2-3.42,32.45,32.45,0,0,0-4.83-3c-1.86-.94-3.86-1.94-6-3s-4.38-2.23-6.34-3.36a27,27,0,0,1-5.13-3.75,15.67,15.67,0,0,1-3.42-4.64,15.28,15.28,0,0,1,.7-13.52,16.33,16.33,0,0,1,5.12-5.21,23.7,23.7,0,0,1,7.24-3.06,34.73,34.73,0,0,1,8.27-1q9.61,0,14,2.23v8.24q-5.76-3.84-14.79-3.84a25.67,25.67,0,0,0-5,.5A14.48,14.48,0,0,0,328,201a9.57,9.57,0,0,0-3.17,2.92,7.49,7.49,0,0,0-1.23,4.36,8.67,8.67,0,0,0,.93,4.14,10.26,10.26,0,0,0,2.74,3.18,27.38,27.38,0,0,0,4.43,2.79c1.73.91,3.74,1.9,6,3s4.53,2.27,6.62,3.49a30.29,30.29,0,0,1,5.48,4,18.23,18.23,0,0,1,3.74,4.93A13.31,13.31,0,0,1,354.9,240a14.44,14.44,0,0,1-7,13,22.58,22.58,0,0,1-7.37,2.9,41.67,41.67,0,0,1-8.8.9c-1,0-2.3-.09-3.81-.24s-3-.4-4.63-.7a37.71,37.71,0,0,1-4.46-1.14A14.06,14.06,0,0,1,315.49,253.26Z" transform="translate(-2.4 -130.96)"/><path class="cls-2" d="M376.42,255.79H368.8V193.26h7.62Z" transform="translate(-2.4 -130.96)"/><path class="cls-2" d="M432.9,199.89H414.12v55.9H406.5v-55.9H387.77v-6.63H432.9Z" transform="translate(-2.4 -130.96)"/><path class="cls-2" d="M484.12,253.17q-7.22,3.66-18,3.67-13.87,0-22.22-8.6T435.6,225.7q0-15,9.38-24.24t23.81-9.25q9.25,0,15.33,2.57v7.81a32.07,32.07,0,0,0-15.42-3.75q-11.2,0-18.16,7.19t-7,19.23q0,11.43,6.5,18.21t17.08,6.78a33,33,0,0,0,17-4.19Z" transform="translate(-2.4 -130.96)"/><path class="cls-2" d="M523.28,256.84q-13.83,0-22.15-8.77t-8.33-22.81q0-15.07,8.48-24.07t23.09-9q13.47,0,21.7,8.72t8.23,22.81q0,15.3-8.44,24.2T523.28,256.84Zm.54-58q-10.25,0-16.64,7.11t-6.39,18.66q0,11.55,6.23,18.6a20.71,20.71,0,0,0,16.26,7q10.69,0,16.87-6.71t6.17-18.8q0-12.39-6-19.14T523.82,198.84Z" transform="translate(-2.4 -130.96)"/><path class="cls-2" d="M634.32,255.79h-7.58V213.84q0-5,.64-12.17h-.18a38.69,38.69,0,0,1-2,6.06L603,255.79h-3.72l-22.18-47.71a36.94,36.94,0,0,1-2-6.41H575q.36,3.75.36,12.26v41.86H568V193.26h10.06l20,43.6a54.89,54.89,0,0,1,3,7.5h.27c1.3-3.43,2.35-6,3.13-7.67l20.36-43.43h9.53Z" transform="translate(-2.4 -130.96)"/><path class="cls-3" d="M344.27,342.44a38.12,38.12,0,0,1-20,5.39q-12.76,0-20.65-8.76t-7.88-23.17q0-14.72,8.75-24.16t22.19-9.44q9.74,0,16.35,3.36v8.22A30,30,0,0,0,325.92,289a20.83,20.83,0,0,0-16.43,7.34q-6.4,7.33-6.4,19,0,12,6,18.91t16.14,6.87a23.69,23.69,0,0,0,12.1-3V320.41H324.22v-6.72h20Z" transform="translate(-2.4 -130.96)"/><path class="cls-3" d="M383,347.83q-12.69,0-20.32-8.89t-7.64-23.13q0-15.29,7.78-24.4T384,282.3q12.36,0,19.91,8.84t7.55,23.13q0,15.51-7.74,24.54T383,347.83Zm.49-58.81a18.74,18.74,0,0,0-15.26,7.21q-5.87,7.2-5.87,18.92T368.1,334A18.23,18.23,0,0,0,383,341.15q9.81,0,15.47-6.81t5.66-19.06q0-12.55-5.49-19.41T383.51,289Z" transform="translate(-2.4 -130.96)"/><path class="cls-3" d="M448.09,347.83q-12.69,0-20.32-8.89t-7.63-23.13q0-15.29,7.78-24.4t21.17-9.11q12.36,0,19.91,8.84t7.54,23.13q0,15.51-7.73,24.54T448.09,347.83Zm.5-58.81a18.73,18.73,0,0,0-15.26,7.21q-5.86,7.2-5.87,18.92T433.18,334a18.2,18.2,0,0,0,14.91,7.14q9.82,0,15.48-6.81t5.65-19.06q0-12.55-5.49-19.41T448.59,289Z" transform="translate(-2.4 -130.96)"/><path class="cls-3" d="M533.72,342.44a38.12,38.12,0,0,1-20,5.39q-12.76,0-20.65-8.76t-7.88-23.17q0-14.72,8.75-24.16t22.2-9.44q9.72,0,16.34,3.36v8.22A30,30,0,0,0,515.37,289a20.83,20.83,0,0,0-16.43,7.34q-6.4,7.33-6.4,19,0,12,5.95,18.91t16.14,6.87a23.69,23.69,0,0,0,12.1-3V320.41H513.67v-6.72h20.05Z" transform="translate(-2.4 -130.96)"/><path class="cls-3" d="M579.37,346.77h-31V283.36h7v56.69h24Z" transform="translate(-2.4 -130.96)"/><path class="cls-3" d="M621,346.77H589.37V283.36h30.29v6.72h-23.3v21.09h21.55v6.68H596.36v22.2H621Z" transform="translate(-2.4 -130.96)"/><path class="cls-4" d="M343.3,431.36q-7,3.72-17.5,3.72-13.53,0-21.66-8.71T296,403.5q0-15.21,9.15-24.58t23.2-9.38q9,0,14.94,2.61v7.92a30.26,30.26,0,0,0-15-3.81q-10.9,0-17.7,7.3t-6.78,19.5q0,11.6,6.34,18.46t16.64,6.88a31.23,31.23,0,0,0,16.53-4.25Z" transform="translate(-2.4 -130.96)"/><path class="cls-4" d="M390,434H357.11V370.6h7.42v56.69H390Z" transform="translate(-2.4 -130.96)"/><path class="cls-4" d="M445.7,408.37q0,26.7-24.09,26.71-23.07,0-23.07-25.69V370.6H406v38.3q0,19.5,16.45,19.5,15.85,0,15.86-18.84v-39h7.43Z" transform="translate(-2.4 -130.96)"/><path class="cls-4" d="M462.42,434V370.6h18q8.22,0,13,4a13,13,0,0,1,4.82,10.48,15.37,15.37,0,0,1-2.92,9.37,15.65,15.65,0,0,1-8,5.66v.18a16.14,16.14,0,0,1,10.25,4.84,14.88,14.88,0,0,1,3.85,10.64A16.58,16.58,0,0,1,495.61,429q-5.83,5-14.71,5Zm7.43-56.69V397.8h7.6q6.1,0,9.59-2.94a10.23,10.23,0,0,0,3.49-8.29q0-9.24-12.15-9.24Zm0,27.15v22.81h10.07q6.56,0,10.15-3.09a10.6,10.6,0,0,0,3.6-8.49q0-11.23-15.29-11.23Z" transform="translate(-2.4 -130.96)"/></g><g id="Calque_1" data-name="Calque 1"><path class="cls-2" d="M113.23,294.37H214.71s17.5,53.78-28.87,104.79l-33.16-26.89a46.75,46.75,0,0,0,20.67-34.87H113.23Z" transform="translate(-2.4 -130.96)"/><path class="cls-1" d="M152.68,372.27l33.16,26.89S94.46,475.6,21.45,378.63c0,0-6.21-9.45-7.32-11.57L49.6,338.38S82.69,413.13,152.68,372.27Z" transform="translate(-2.4 -130.96)"/><path class="cls-4" d="M49.6,338.38,14.13,367.06s-27.52-47.26,1.75-103.32L49.6,292.42S39.74,316.86,49.6,338.38Z" transform="translate(-2.4 -130.96)"/><path class="cls-3" d="M49.6,292.42,15.88,263.74S77,148,185.84,230.16l-30.62,31S89.69,207,49.6,292.42Z" transform="translate(-2.4 -130.96)"/><path class="cls-5" d="M164.69,413.13" transform="translate(-2.4 -130.96)"/><path class="cls-5" d="M147.61,374.43" transform="translate(-2.4 -130.96)"/><path class="cls-6" d="M38,232.24l-22-65.52s-3-7,6.84-13.2c0,0,16.22-14.34,48.19-22.16,0,0,8-2.12,10.5,3.42l36.91,56.71s4,2.95,0,8-5.29,12.64-36.69,26C81.67,225.44,42,240.55,38,232.24Z" transform="translate(-2.4 -130.96)"/><path class="cls-7" d="M38,232.24s.4-2.61,14.08-6.52c0,0,42.63-19.56,45.65-26.24,0,0,5.88-8,1.27-20.53,0,0-14-39.74-16.93-43.3s37.58,57.4,37.58,57.4,4.27,5.28-13,19.22C106.64,212.27,57,244.3,38,232.24Z" transform="translate(-2.4 -130.96)"/><path class="cls-8" d="M39.86,236.15s48.67.49,78.5-33a8,8,0,0,1,0-3.67s-16.94,28.85-74.21,34.22c0,0-2.15,1.23-6.2-1.46A18,18,0,0,0,39.86,236.15Z" transform="translate(-2.4 -130.96)"/><path class="cls-9" d="M59.5,134.94s22.47-9,19.51.56c0,0-11.71,12.16-27,17.86,0,0-20.84,9-34.68,9.61,0,0-1-1,8.11-3.25,0,0,30.22-10.92,33.25-16.63C58.71,143.09,68.57,136.9,59.5,134.94Z" transform="translate(-2.4 -130.96)"/><path class="cls-10" d="M47.09,142.6s2.55,3.75,0,5.38c0,0-1.9.65-3-3.42,0,0-1.43-3.23,0-3.9C44.07,140.66,44.87,138.37,47.09,142.6Z" transform="translate(-2.4 -130.96)"/><path class="cls-10" d="M55.53,136.08S67.3,132.82,76,152.22l21.64,42.86s4.61,8,8.43,5.38c0,0,4.93-1.8,2.23-5.38a231.39,231.39,0,0,0-18.14-29s-13.63-24.44-22.4-29.5C67.8,136.57,57.91,130.87,55.53,136.08Z" transform="translate(-2.4 -130.96)"/></g></svg>